<?xml version="1.0" encoding="iso-8859-1"?>
<!-- Uploaded to: SVG Repo, www.svgrepo.com, Generator: SVG Repo Mixer Tools -->
<svg height="800px" width="800px" version="1.1" id="Layer_1" xmlns="http://www.w3.org/2000/svg" xmlns:xlink="http://www.w3.org/1999/xlink" 
	 viewBox="0 0 512 512" xml:space="preserve">
<g transform="translate(1 1)">
	<path style="fill:#FFDD09;" d="M203.785,127c-7.68,5.12-18.773,3.413-23.893-5.12l-25.6-38.4
		c-5.973-9.387-11.947-19.627-17.067-29.013l-2.56-5.12c-2.56-4.267-11.947-7.68-24.747-7.68c11.093-11.093,11.093-23.04,0-34.133
		c34.133,0,48.64,14.507,55.467,25.6l2.56,5.12c5.12,9.387,9.387,17.92,15.36,26.453l25.6,38.4
		C214.025,110.787,211.465,121.88,203.785,127"/>
	<polygon style="fill:#FCC309;" points="289.119,306.2 229.385,280.6 169.652,306.2 186.719,246.467 272.052,246.467 	"/>
	<g>
		<path style="fill:#FFDD09;" d="M58.719,511c-1.707,0-3.413,0-4.267-0.853c-4.267-2.56-5.12-7.68-3.413-11.947l119.467-196.267
			c2.56-4.267,7.68-5.12,11.947-2.56c4.267,2.56,5.12,7.68,2.56,11.947L65.545,507.587C64.692,509.293,61.279,511,58.719,511z"/>
		<path style="fill:#FFDD09;" d="M417.119,511c-2.56,0-5.973-1.707-7.68-4.267L289.972,310.467c-2.56-4.267-0.853-9.387,2.56-11.947
			c3.413-2.56,9.387-0.853,11.947,2.56l119.467,196.267c2.56,4.267,0.853,9.387-2.56,11.947C420.532,511,418.825,511,417.119,511z"
			/>
		<path style="fill:#FFDD09;" d="M237.919,511c-5.12,0-8.533-3.413-8.533-8.533V280.6c0-5.12,3.413-8.533,8.533-8.533
			c5.12,0,8.533,3.413,8.533,8.533v221.867C246.452,507.587,243.039,511,237.919,511z"/>
		<polygon style="fill:#FFDD09;" points="382.985,220.867 417.119,220.867 417.119,152.6 382.985,152.6 		"/>
		<path style="fill:#FFDD09;" d="M425.652,161.133c-3.413,0-5.973,0.853-8.533,1.707v47.787c2.56,0.853,5.12,1.707,8.533,1.707
			c14.507,0,25.6-11.093,25.6-25.6C451.252,172.227,440.159,161.133,425.652,161.133"/>
		<path style="fill:#FFDD09;" d="M280.585,109.933c-0.853,0-1.707,0-3.413-0.853c-4.267-1.707-6.827-6.827-5.12-11.093l25.6-68.267
			c1.707-2.56,5.12-5.12,8.533-5.12h76.8c5.12,0,8.533,3.413,8.533,8.533s-3.413,8.533-8.533,8.533h-70.827l-23.893,63.147
			C287.412,108.227,283.999,109.933,280.585,109.933z"/>
		<path style="fill:#FFDD09;" d="M126.985,161.133V92.867h-51.2c-9.387,0-17.067,7.68-17.067,17.067V229.4
			c0,9.387,7.68,17.067,17.067,17.067h153.6h136.533c9.387,0,17.067-7.68,17.067-17.067v-51.2H144.052
			C134.665,178.2,126.985,170.52,126.985,161.133"/>
	</g>
	<path style="fill:#FD9808;" d="M357.385,178.2v51.2c0,9.387-7.68,17.067-17.067,17.067h25.6c9.387,0,17.067-7.68,17.067-17.067
		v-51.2H357.385z"/>
	<path style="fill:#FFFFFF;" d="M84.319,229.4V109.933c0-9.387,7.68-17.067,17.067-17.067h-25.6c-9.387,0-17.067,7.68-17.067,17.067
		V229.4c0,9.387,7.68,17.067,17.067,17.067h25.6C91.999,246.467,84.319,238.787,84.319,229.4"/>
	<path style="fill:#54C9FD;" d="M442.719,41.667h-51.2c-9.387,0-17.067-7.68-17.067-17.067s7.68-17.067,17.067-17.067h51.2
		c9.387,0,17.067,7.68,17.067,17.067S452.105,41.667,442.719,41.667"/>
	<path style="fill:#FCC309;" d="M365.919,92.867H201.225l6.827,10.24c5.12,7.68,3.413,18.773-5.12,23.893
		c-8.533,5.12-18.773,3.413-23.893-5.12l-18.773-29.013h-33.28v68.267c0,9.387,7.68,17.067,17.067,17.067h238.933v-68.267
		C382.985,100.547,375.305,92.867,365.919,92.867"/>
	<path style="fill:#FD9808;" d="M365.919,92.867h-25.6c9.387,0,17.067,7.68,17.067,17.067V178.2h25.6v-68.267
		C382.985,100.547,375.305,92.867,365.919,92.867"/>
	<g>
		<polygon style="fill:#1CD759;" points="272.052,246.467 340.319,246.467 340.319,178.2 272.052,178.2 		"/>
		<polygon style="fill:#1CD759;" points="144.052,246.467 212.319,246.467 212.319,178.2 144.052,178.2 		"/>
	</g>
	<path style="fill:#33A9F8;" d="M442.719,7.533h-25.6c9.387,0,17.067,7.68,17.067,17.067s-7.68,17.067-17.067,17.067h25.6
		c9.387,0,17.067-7.68,17.067-17.067S452.105,7.533,442.719,7.533"/>
	<path d="M50.185,511c-1.707,0-3.413,0-4.267-0.853c-4.267-2.56-5.12-7.68-3.413-11.947l119.467-196.267
		c2.56-4.267,7.68-5.12,11.947-2.56c4.267,2.56,5.12,7.68,2.56,11.947L57.012,507.587C56.159,509.293,52.745,511,50.185,511z"/>
	<path d="M408.585,511c-2.56,0-5.973-1.707-7.68-4.267L281.439,310.467c-2.56-4.267-0.853-9.387,2.56-11.947
		c3.413-2.56,9.387-0.853,11.947,2.56l119.467,196.267c2.56,4.267,0.853,9.387-2.56,11.947C411.999,511,410.292,511,408.585,511z"/>
	<path d="M229.385,511c-5.12,0-8.533-3.413-8.533-8.533V280.6c0-5.12,3.413-8.533,8.533-8.533c5.12,0,8.533,3.413,8.533,8.533
		v221.867C237.919,507.587,234.505,511,229.385,511z"/>
	<path d="M417.119,229.4h-34.133c-5.12,0-8.533-3.413-8.533-8.533V152.6c0-5.12,3.413-8.533,8.533-8.533h34.133
		c5.12,0,8.533,3.413,8.533,8.533v68.267C425.652,225.987,422.239,229.4,417.119,229.4z M391.519,212.333h17.067v-51.2h-17.067
		V212.333z"/>
	<path d="M246.452,135.533c0-5.12,3.413-8.533,8.533-8.533s8.533,3.413,8.533,8.533s-3.413,8.533-8.533,8.533
		S246.452,140.653,246.452,135.533"/>
	<path d="M289.119,135.533c0-5.12,3.413-8.533,8.533-8.533s8.533,3.413,8.533,8.533s-3.413,8.533-8.533,8.533
		S289.119,140.653,289.119,135.533"/>
	<path d="M169.652,212.333c0-5.12,3.413-8.533,8.533-8.533s8.533,3.413,8.533,8.533c0,5.12-3.413,8.533-8.533,8.533
		S169.652,217.453,169.652,212.333"/>
	<path d="M297.652,212.333c0-5.12,3.413-8.533,8.533-8.533s8.533,3.413,8.533,8.533c0,5.12-3.413,8.533-8.533,8.533
		S297.652,217.453,297.652,212.333"/>
	<path d="M331.785,135.533c0-5.12,3.413-8.533,8.533-8.533c5.12,0,8.533,3.413,8.533,8.533s-3.413,8.533-8.533,8.533
		C335.199,144.067,331.785,140.653,331.785,135.533"/>
	<path d="M289.119,314.733c-0.853,0-2.56,0-3.413-0.853l-56.32-23.893l-56.32,23.893c-3.413,1.707-6.827,0.853-9.387-1.707
		c-2.56-2.56-3.413-5.973-2.56-8.533l17.067-59.733c0.853-3.413,4.267-5.973,8.533-5.973h85.333c3.413,0,6.827,2.56,8.533,5.973
		l17.067,59.733c0.853,3.413,0,6.827-2.56,8.533C293.385,313.88,290.825,314.733,289.119,314.733z M229.385,272.067
		c0.853,0,2.56,0,3.413,0.853l43.52,18.773L265.225,255h-72.533l-10.24,36.693l43.52-18.773
		C226.825,272.067,228.532,272.067,229.385,272.067z"/>
	<path d="M272.052,101.4c-0.853,0-1.707,0-3.413-0.853c-4.267-1.707-6.827-6.827-5.12-11.093l25.6-68.267
		c1.707-2.56,5.12-5.12,8.533-5.12h76.8c5.12,0,8.533,3.413,8.533,8.533s-3.413,8.533-8.533,8.533h-70.827L279.732,96.28
		C278.879,99.693,275.465,101.4,272.052,101.4z"/>
	<path d="M442.719,50.2h-51.2c-14.507,0-25.6-11.093-25.6-25.6S377.012-1,391.519-1h51.2c14.507,0,25.6,11.093,25.6,25.6
		S457.225,50.2,442.719,50.2z M391.519,16.067c-5.12,0-8.533,3.413-8.533,8.533s3.413,8.533,8.533,8.533h51.2
		c5.12,0,8.533-3.413,8.533-8.533s-3.413-8.533-8.533-8.533H391.519z"/>
	<path d="M365.919,255H75.785c-14.507,0-25.6-11.093-25.6-25.6V109.933c0-14.507,11.093-25.6,25.6-25.6h51.2
		c5.12,0,8.533,3.413,8.533,8.533v68.267c0,5.12,3.413,8.533,8.533,8.533h238.933c5.12,0,8.533,3.413,8.533,8.533v51.2
		C391.519,243.907,380.425,255,365.919,255z M75.785,101.4c-5.12,0-8.533,3.413-8.533,8.533V229.4c0,5.12,3.413,8.533,8.533,8.533
		h290.133c5.12,0,8.533-3.413,8.533-8.533v-42.667h-230.4c-14.507,0-25.6-11.093-25.6-25.6V101.4H75.785z"/>
	<path d="M340.319,255h-68.267c-5.12,0-8.533-3.413-8.533-8.533V178.2c0-5.12,3.413-8.533,8.533-8.533h68.267
		c5.12,0,8.533,3.413,8.533,8.533v68.267C348.852,251.587,345.439,255,340.319,255z M280.585,237.933h51.2v-51.2h-51.2V237.933z"/>
	<path d="M212.319,255h-68.267c-5.12,0-8.533-3.413-8.533-8.533V178.2c0-5.12,3.413-8.533,8.533-8.533h68.267
		c5.12,0,8.533,3.413,8.533,8.533v68.267C220.852,251.587,217.439,255,212.319,255z M152.585,237.933h51.2v-51.2h-51.2V237.933z"/>
	<path d="M194.399,138.093c-1.707,0-3.413,0-5.12-0.853c-6.827-1.707-12.8-5.12-16.213-11.093l-25.6-38.4
		c-6.827-10.24-11.947-20.48-17.067-29.867l-2.56-4.267c-0.853-0.853-5.973-3.413-17.92-3.413c-3.413,0-6.827-1.707-7.68-5.12
		c-1.707-3.413-0.853-6.827,1.707-9.387c2.56-2.56,5.973-6.827,5.973-11.093s-3.413-8.533-5.973-11.093s-3.413-5.973-1.707-9.387
		c0.853-3.413,4.267-5.12,7.68-5.12c38.4,0,55.467,16.213,62.293,30.72l2.56,5.12c5.12,9.387,9.387,17.92,14.507,25.6l25.6,38.4
		c7.68,11.947,4.267,27.307-6.827,35.84C204.639,137.24,199.519,138.093,194.399,138.093z M125.279,34.84
		c8.533,1.707,14.507,5.973,17.067,11.093l2.56,4.267c5.12,9.387,10.24,18.773,16.213,28.16l25.6,38.4
		c0.853,1.707,3.413,3.413,5.12,3.413c2.56,0.853,4.267,0,6.827-0.853c4.267-2.56,5.12-7.68,2.56-11.947l-25.6-38.4
		c-5.973-8.533-10.24-17.067-15.36-26.453l-2.56-5.12c-5.973-10.24-16.213-17.067-31.573-20.48c0.853,2.56,0.853,5.12,0.853,7.68
		C126.985,28.013,126.132,31.427,125.279,34.84z"/>
	<path d="M382.985,186.733H144.052c-14.507,0-25.6-11.093-25.6-25.6V92.867c0-5.12,3.413-8.533,8.533-8.533h33.28
		c2.56,0,5.12,1.707,6.827,3.413l19.627,29.013c0.853,1.707,3.413,3.413,5.12,3.413c2.56,0.853,4.267,0,6.827-0.853
		c4.267-2.56,5.12-7.68,2.56-11.947l-6.827-10.24c-1.707-2.56-1.707-5.973,0-8.533c0.853-2.56,4.267-4.267,6.827-4.267h164.693
		c14.507,0,25.6,11.093,25.6,25.6V178.2C391.519,183.32,388.105,186.733,382.985,186.733z M135.519,101.4v59.733
		c0,5.12,3.413,8.533,8.533,8.533h230.4v-59.733c0-5.12-3.413-8.533-8.533-8.533h-148.48c5.973,11.093,1.707,25.6-8.533,32.427
		c-5.973,3.413-12.8,5.12-19.627,3.413c-6.827-1.707-12.8-5.12-16.213-11.093l-17.067-25.6h-20.48V101.4z"/>
	<path d="M425.652,220.867c-3.413,0-7.68-0.853-11.093-1.707c-3.413-0.853-5.973-4.267-5.973-7.68v-47.787
		c0-3.413,2.56-6.827,5.973-7.68c23.04-8.533,45.227,9.387,45.227,32.427C459.785,205.507,444.425,220.867,425.652,220.867z
		 M425.652,169.667V203.8c9.387,0,17.067-7.68,17.067-17.067C442.719,177.347,435.039,169.667,425.652,169.667z"/>
</g>
</svg>